<svg xmlns="http://www.w3.org/2000/svg" width="1440" height="693" viewBox="0 0 1440 693" fill="none">
<g filter="url(#filter0_d)">
<rect width="1440" height="692" fill="none"/>
</g>
<path opacity="0.2" d="M754 83H760C762.209 83 764 84.7909 764 87C764 89.2091 762.209 91 760 91H754V97C754 99.2092 752.209 101 750 101C747.791 101 746 99.2092 746 97V91H740C737.791 91 736 89.2091 736 87C736 84.7909 737.791 83 740 83H746V77C746 74.7909 747.791 73 750 73C752.209 73 754 74.7909 754 77V83Z" fill="#C916AB"/>
<path opacity="0.3" d="M1120.11 482.658C1103.99 506.782 1107.32 527.831 1130.09 545.805" stroke="#B6E3FF" stroke-width="11" stroke-linecap="round"/>
<path opacity="0.2" d="M279 523.382C304.193 537.771 324.958 532.977 341.294 509" stroke="#EAAF23" stroke-width="11" stroke-linecap="round"/>
<g filter="url(#filter1_d)">


</g>
<path opacity="0.4" d="M312 265H318C320.209 265 322 266.791 322 269C322 271.209 320.209 273 318 273H312V279C312 281.209 310.209 283 308 283C305.791 283 304 281.209 304 279V273H298C295.791 273 294 271.209 294 269C294 266.791 295.791 265 298 265H304V259C304 256.791 305.791 255 308 255C310.209 255 312 256.791 312 259V265Z" fill="#B6E3FF"/>
<path opacity="0.2" d="M1196 283C1200.97 283 1205 278.971 1205 274C1205 269.029 1200.97 265 1196 265C1191.03 265 1187 269.029 1187 274C1187 278.971 1191.03 283 1196 283Z" fill="#C916AB"/>

<defs>
<filter id="filter0_d" x="0" y="0" width="1440" height="693" filterUnits="userSpaceOnUse" color-interpolation-filters="sRGB">
<feFlood flood-opacity="0" result="BackgroundImageFix"/>
<feColorMatrix in="SourceAlpha" type="matrix" values="0 0 0 0 0 0 0 0 0 0 0 0 0 0 0 0 0 0 127 0"/>
<feOffset dy="1"/>
<feColorMatrix type="matrix" values="0 0 0 0 0.866667 0 0 0 0 0.85098 0 0 0 0 0.933333 0 0 0 1 0"/>
<feBlend mode="normal" in2="BackgroundImageFix" result="effect1_dropShadow"/>
<feBlend mode="normal" in="SourceGraphic" in2="effect1_dropShadow" result="shape"/>
</filter>
<filter id="filter1_d" x="523" y="442" width="394" height="80" filterUnits="userSpaceOnUse" color-interpolation-filters="sRGB">
<feFlood flood-opacity="0" result="BackgroundImageFix"/>
<feColorMatrix in="SourceAlpha" type="matrix" values="0 0 0 0 0 0 0 0 0 0 0 0 0 0 0 0 0 0 127 0"/>
<feOffset dy="4"/>
<feGaussianBlur stdDeviation="5"/>
<feColorMatrix type="matrix" values="0 0 0 0 0 0 0 0 0 0 0 0 0 0 0 0 0 0 0.05 0"/>
<feBlend mode="normal" in2="BackgroundImageFix" result="effect1_dropShadow"/>
<feBlend mode="normal" in="SourceGraphic" in2="effect1_dropShadow" result="shape"/>
</filter>
</defs>
</svg>
