<?xml version="1.0" encoding="UTF-8"?>
<svg width="1400px" height="603px" viewBox="0 0 1400 603" version="1.1" xmlns="http://www.w3.org/2000/svg" xmlns:xlink="http://www.w3.org/1999/xlink">
    <!-- Generator: Sketch 57.1 (83088) - https://sketch.com -->
    <title>Artboard</title>
    <desc>Created with Sketch.</desc>
    <g id="Artboard" stroke="none" stroke-width="1" fill="none" fill-rule="evenodd">
        <g id="confetti-piece-1" transform="translate(1011.000000, 25.000000)" fill="#07DFE0" fill-rule="nonzero">
            <g id="Group_918" transform="translate(18.359334, 39.151264) rotate(11.000000) translate(-18.359334, -39.151264) translate(7.859334, 2.151264)">
                <path d="M8.7,73.8630084 C6.60885335,73.8630084 4.72852889,72.5895143 3.95330207,70.6473718 C3.17807524,68.7052292 3.6644071,66.4867362 5.181,65.047 C6.038,64.233 6.94,63.53 7.736,62.911 C10.116,61.058 10.536,60.551 10.536,59.517 C10.536,58.483 10.118,57.977 7.736,56.124 C5.052,54.034 0.996,50.877 0.996,44.665 C0.996,38.453 5.052,35.297 7.736,33.207 C10.116,31.354 10.536,30.846 10.536,29.813 C10.536,28.78 10.118,28.271 7.736,26.413 C5.052,24.323 0.996,21.165 0.996,14.954 C0.996,8.743 5.052,5.584 7.736,3.494 C8.285,3.066 8.804,2.663 9.245,2.273 C11.3613552,0.405725261 14.5907253,0.607644839 16.458,2.724 C18.3252747,4.84035516 18.1233552,8.06972526 16.007,9.937 C15.331,10.537 14.662,11.055 14.015,11.559 C11.635,13.413 11.215,13.92 11.215,14.959 C11.215,15.998 11.633,16.501 14.015,18.359 C16.699,20.449 20.755,23.607 20.755,29.818 C20.755,36.029 16.699,39.186 14.015,41.277 C11.635,43.13 11.215,43.638 11.215,44.671 C11.215,45.704 11.633,46.212 14.015,48.065 C16.699,50.154 20.755,53.312 20.755,59.522 C20.755,65.732 16.699,68.89 14.015,70.981 C13.345,71.502 12.715,71.995 12.215,72.464 C11.2664742,73.3644336 10.0078518,73.865376 8.7,73.8630084 L8.7,73.8630084 Z" id="Path_294"></path>
            </g>
        </g>
        <g id="confetti-piece-2" transform="translate(1195.000000, 481.000000)" fill="#FF5858" fill-rule="nonzero">
            <g id="Group_919" transform="translate(36.905761, 23.053524) rotate(69.000000) translate(-36.905761, -23.053524) translate(26.405761, -11.946476)">
                <path d="M6.107,69.8130201 C4.13537876,69.8118596 2.34030096,68.6765502 1.49429357,66.8956619 C0.648286178,65.1147736 0.902292984,63.0060507 2.147,61.477 L9.059,52.988 L2.146,44.495 C0.617536886,42.6162757 0.617536886,39.9227243 2.146,38.044 L9.059,29.551 L2.146,21.056 C0.61699444,19.177093 0.61699444,16.482907 2.146,14.604 L11.685,2.883 C12.8373602,1.46697783 14.6576237,0.773296222 16.4601149,1.06325831 C18.2626062,1.3532204 19.7734839,2.58277406 20.4236149,4.28875831 C21.073746,5.99474257 20.7643602,7.91797783 19.612,9.334 L12.699,17.834 L19.612,26.334 C21.1404631,28.2127243 21.1404631,30.9062757 19.612,32.785 L12.699,41.278 L19.612,49.771 C21.1413914,51.6497698 21.1413914,54.3442302 19.612,56.223 L10.073,67.937 C9.10127364,69.1280662 7.6441637,69.8173093 6.107,69.8130201 Z" id="Path_293"></path>
            </g>
        </g>
        <g id="confetti-piece-3" transform="translate(1212.000000, 407.000000)" fill="#18DE74" fill-rule="nonzero">
            <path d="M24.506,48.012 C14.9987105,48.012 6.4275699,42.284947 2.78928771,33.5013568 C-0.84899448,24.7177666 1.16207911,14.6074169 7.884748,7.884748 C14.6074169,1.16207911 24.7177666,-0.84899448 33.5013568,2.78928771 C42.284947,6.4275699 48.012,14.9987105 48.012,24.506 C47.997121,37.4818373 37.4818373,47.997121 24.506,48.012 L24.506,48.012 Z M24.506,11.22 C17.1683448,11.22 11.22,17.1683448 11.22,24.506 C11.22,31.8436552 17.1683448,37.792 24.506,37.792 C31.8436552,37.792 37.792,31.8436552 37.792,24.506 C37.7842836,17.1715434 31.8404566,11.2277164 24.506,11.22 Z" id="Path_289"></path>
        </g>
        <g id="confetti-piece-4" transform="translate(1035.000000, 342.000000)" fill="#FD4EC7" fill-rule="nonzero">
            <g id="Group_916" transform="translate(32.260303, 32.120250) rotate(20.000000) translate(-32.260303, -32.120250) translate(7.760303, 7.620250)">
                <path d="M6.508,48.4100001 C3.70755464,48.4100001 1.42914175,46.1552832 1.399,43.355 L0.998705308,6.565 C0.969012798,3.74336798 3.23138236,1.43131045 6.053,1.4 L42.843,0.999690032 C44.9099,0.97730997 46.7869035,2.20205573 47.5986073,4.1030364 C48.4103112,6.00401706 47.9968282,8.20678256 46.551,9.684 L10.161,46.874 C9.19957858,47.8566216 7.88272771,48.4100001 6.508,48.4100001 Z M11.275,11.564 L11.486,30.908 L30.62,11.354 L11.275,11.564 Z" id="Path_292"></path>
            </g>
        </g>
        <g id="confetti-piece-5" transform="translate(154.000000, 339.000000)" fill="#9C5CFF" fill-rule="nonzero">
            <g id="Group_917" transform="translate(32.759145, 32.296116) rotate(-45.000000) translate(-32.759145, -32.296116) translate(22.259145, -2.703884)">
                <path d="M6.107,69.8130201 C4.13537876,69.8118596 2.34030096,68.6765502 1.49429357,66.8956619 C0.648286178,65.1147736 0.902292984,63.0060507 2.147,61.477 L9.059,52.988 L2.146,44.495 C0.617536886,42.6162757 0.617536886,39.9227243 2.146,38.044 L9.059,29.551 L2.146,21.056 C0.61699444,19.177093 0.61699444,16.482907 2.146,14.604 L11.685,2.883 C12.8373602,1.46697783 14.6576237,0.773296222 16.4601149,1.06325831 C18.2626062,1.3532204 19.7734839,2.58277406 20.4236149,4.28875831 C21.073746,5.99474257 20.7643602,7.91797783 19.612,9.334 L12.699,17.834 L19.612,26.334 C21.1404631,28.2127243 21.1404631,30.9062757 19.612,32.785 L12.699,41.278 L19.612,49.771 C21.1413914,51.6497698 21.1413914,54.3442302 19.612,56.223 L10.073,67.937 C9.10127364,69.1280662 7.6441637,69.8173093 6.107,69.8130201 Z" id="Path_293"></path>
            </g>
        </g>
        <g id="confetti-piece-6" transform="translate(214.000000, 261.000000)" fill="#FFCD45" fill-rule="nonzero">
            <g id="Group_914" transform="translate(27.360676, 28.258181) rotate(-49.000000) translate(-27.360676, -28.258181) translate(2.860676, 13.758181)">
                <path d="M42.9,28.6160001 C41.5446624,28.6160001 40.2447598,28.0779771 39.2863914,27.1196086 C38.3280229,26.1612402 37.7897347,24.8613376 37.79,23.506 C37.79,16.1683448 31.8416552,10.22 24.504,10.22 C17.1663448,10.22 11.218,16.1683448 11.218,23.506 C11.218,26.3281751 8.93017507,28.6160001 6.108,28.6160001 C3.28582493,28.6160001 0.998,26.3281751 0.998,23.506 C0.998,10.5239952 11.5219952,1.4010667e-06 24.504,1.4010667e-06 C37.4860048,1.4010667e-06 48.0100001,10.5239952 48.0100001,23.506 C48.0100001,24.8613376 47.4719771,26.1612402 46.5136086,27.1196086 C45.5552402,28.0779771 44.2553376,28.6160001 42.9,28.6160001 L42.9,28.6160001 Z" id="Path_290"></path>
            </g>
        </g>
        <g id="confetti-piece-7" transform="translate(125.000000, 180.000000)" fill="#3798FA" fill-rule="nonzero">
            <g id="Group_915" transform="translate(11.903501, 24.617668) rotate(14.000000) translate(-11.903501, -24.617668) translate(6.403501, 0.617668)">
                <path d="M5.11,47.0120001 C3.75431575,47.0120001 2.45410978,46.4737028 1.49568381,45.5149017 C0.537257847,44.5561007 -0.000796082547,43.255684 -8.82131076e-07,41.9 L-8.82131076e-07,5.11 C-8.82131076e-07,2.28782493 2.28782493,0 5.11,0 C7.93217507,0 10.2200009,2.28782493 10.2200009,5.11 L10.2200009,41.9 C10.2207961,43.255684 9.68274215,44.5561007 8.72431619,45.5149017 C7.76589022,46.4737028 6.46568425,47.0120001 5.11,47.0120001 L5.11,47.0120001 Z" id="Path_291"></path>
            </g>
        </g>
    </g>
</svg>